<?xml version="1.0" encoding="utf-8"?>
<!-- Generator: Adobe Illustrator 16.0.0, SVG Export Plug-In . SVG Version: 6.00 Build 0)  -->
<!DOCTYPE svg PUBLIC "-//W3C//DTD SVG 1.1//EN" "http://www.w3.org/Graphics/SVG/1.1/DTD/svg11.dtd">
<svg version="1.1" id="Lager_2" xmlns="http://www.w3.org/2000/svg" xmlns:xlink="http://www.w3.org/1999/xlink" x="0px" y="0px"
	 width="183.685px" height="183.685px" viewBox="0 0 183.685 183.685" enable-background="new 0 0 183.685 183.685"
	 xml:space="preserve">
<path fill="#FFFFFF" stroke="#00692F" stroke-width="2" stroke-miterlimit="10" d="M91.842,1.131
	c50.018,0,90.71,40.691,90.71,90.709c0,50.021-40.692,90.714-90.71,90.714c-50.018,0-90.709-40.693-90.709-90.714
	C1.133,41.822,41.824,1.131,91.842,1.131"/>
<path fill="#00692F" d="M126.771,87.503V63.47c0-21.238-16.962-32.352-33.717-32.352c-16.897,0-34.008,11.279-34.008,32.836v21.453
	c-8.107,7.401-13.12,17.521-13.12,28.698c0,22.663,20.555,41.043,45.916,41.043c25.36,0,45.922-18.38,45.922-41.043
	C137.764,103.949,133.609,94.668,126.771,87.503z M99.412,122.513c0,4.185-3.39,7.57-7.57,7.57s-7.571-3.386-7.571-7.57V107.94
	c0-4.185,3.391-7.57,7.571-7.57s7.57,3.386,7.57,7.57V122.513z M111.627,77.117c-5.997-2.566-12.692-4.05-19.785-4.05
	c-6.26,0-12.219,1.129-17.653,3.153V63.955c0-13.967,11.86-17.693,18.865-17.693c6.897,0,18.573,3.626,18.573,17.209V77.117z"/>
</svg>
