<?xml version="1.0" encoding="utf-8"?>
<!-- Generator: Adobe Illustrator 16.0.0, SVG Export Plug-In . SVG Version: 6.00 Build 0)  -->
<!DOCTYPE svg PUBLIC "-//W3C//DTD SVG 1.1//EN" "http://www.w3.org/Graphics/SVG/1.1/DTD/svg11.dtd">
<svg version="1.1" id="Layer_1" xmlns="http://www.w3.org/2000/svg" xmlns:xlink="http://www.w3.org/1999/xlink" x="0px" y="0px"
	 width="20px" height="20px" viewBox="0 0 20 20" enable-background="new 0 0 20 20" xml:space="preserve">
<path fill="#FFFFFF" d="M20,13.941c0,0.828-0.672,1.5-1.5,1.5h-17c-0.829,0-1.5-0.672-1.5-1.5l0,0c0-0.828,0.671-1.5,1.5-1.5h17
	C19.328,12.441,20,13.113,20,13.941L20,13.941z"/>
<path fill="#FFFFFF" d="M20,3.941c0,0.828-0.672,1.5-1.5,1.5h-17c-0.829,0-1.5-0.672-1.5-1.5l0,0c0-0.828,0.671-1.5,1.5-1.5h17
	C19.328,2.441,20,3.113,20,3.941L20,3.941z"/>
<path fill="#FFFFFF" d="M20,8.941c0,0.828-0.672,1.5-1.5,1.5h-17c-0.829,0-1.5-0.672-1.5-1.5l0,0c0-0.828,0.671-1.5,1.5-1.5h17
	C19.328,7.441,20,8.113,20,8.941L20,8.941z"/>
</svg>
